Ostrich Regular.ufo
<glyph name="exclam" format="1">
  <advance width="93"/>
  <unicode hex="0021"/>
  <outline>
    <contour>
      <point x="9" y="675" type="line"/>
      <point x="40" y="675" type="line"/>
      <point x="40" y="99" type="line"/>
      <point x="9" y="99" type="line"/>
    </contour>
    <contour>
      <point x="9" y="1" type="line"/>
      <point x="9" y="44" type="line"/>
      <point x="40" y="44" type="line"/>
      <point x="40" y="1" type="line"/>
    </contour>
  </outline>
</glyph>
<glyph name="quotedbl" format="1">
  <advance width="162"/>
  <unicode hex="0022"/>
  <outline>
    <contour>
      <point x="10" y="586" type="line"/>
      <point x="10" y="674" type="line"/>
      <point x="41" y="674" type="line"/>
      <point x="41" y="586" type="line"/>
    </contour>
    <contour>
      <point x="69" y="674" type="line"/>
      <point x="101" y="674" type="line"/>
      <point x="101" y="586" type="line"/>
      <point x="69" y="586" type="line"/>
    </contour>
  </outline>
</glyph>
<glyph name="quotesingle" format="1">
  <advance width="81"/>
  <unicode hex="0027"/>
  <outline>
    <contour>
      <point x="10" y="674" type="line"/>
      <point x="41" y="674" type="line"/>
      <point x="41" y="586" type="line"/>
      <point x="10" y="586" type="line"/>
    </contour>
  </outline>
</glyph>
<glyph name="parenleft" format="1">
  <advance width="166"/>
  <unicode hex="0028"/>
  <outline>
    <contour>
      <point x="103" y="2" type="line"/>
      <point x="102" y="3"/>
      <point x="96" y="9"/>
      <point x="86" y="18" type="curve"/>
      <point x="75" y="27"/>
      <point x="64" y="44"/>
      <point x="53" y="69" type="curve"/>
      <point x="22" y="133"/>
      <point x="7" y="222"/>
      <point x="7" y="335" type="curve" smooth="yes"/>
      <point x="7" y="471"/>
      <point x="30" y="555"/>
      <point x="53" y="605" type="curve" smooth="yes"/>
      <point x="64" y="630"/>
      <point x="75" y="647"/>
      <point x="85" y="657" type="curve"/>
      <point x="95" y="666"/>
      <point x="101" y="671"/>
      <point x="102" y="672" type="curve"/>
      <point x="120" y="645" type="line"/>
      <point x="112" y="638"/>
      <point x="103" y="629"/>
      <point x="94" y="614" type="curve"/>
      <point x="89" y="607"/>
      <point x="84" y="597"/>
      <point x="79" y="586" type="curve" smooth="yes"/>
      <point x="60" y="543"/>
      <point x="38" y="467"/>
      <point x="38" y="335" type="curve" smooth="yes"/>
      <point x="38" y="204"/>
      <point x="60" y="127"/>
      <point x="79" y="86" type="curve" smooth="yes"/>
      <point x="90" y="63"/>
      <point x="98" y="50"/>
      <point x="106" y="41" type="curve"/>
      <point x="110" y="36"/>
      <point x="114" y="32"/>
      <point x="119" y="29" type="curve"/>
    </contour>
  </outline>
</glyph>
<glyph name="asterisk" format="1">
  <advance width="295"/>
  <unicode hex="002A"/>
  <outline>
    <contour>
      <point x="160" y="537" type="line"/>
      <point x="233" y="455" type="line"/>
      <point x="209" y="434" type="line"/>
      <point x="133" y="520" type="line"/>
      <point x="58" y="434" type="line"/>
      <point x="34" y="455" type="line"/>
      <point x="106" y="537" type="line"/>
      <point x="10" y="573" type="line"/>
      <point x="21" y="603" type="line"/>
      <point x="118" y="567" type="line"/>
      <point x="118" y="670" type="line"/>
      <point x="149" y="670" type="line"/>
      <point x="149" y="567" type="line"/>
      <point x="246" y="603" type="line"/>
      <point x="257" y="573" type="line"/>
    </contour>
  </outline>
</glyph>
<glyph name="plus" format="1">
  <advance width="384"/>
  <unicode hex="002B"/>
  <outline>
    <contour>
      <point x="336" y="318" type="line"/>
      <point x="190" y="318" type="line"/>
      <point x="190" y="172" type="line"/>
      <point x="158" y="172" type="line"/>
      <point x="158" y="318" type="line"/>
      <point x="12" y="318" type="line"/>
      <point x="12" y="350" type="line"/>
      <point x="158" y="350" type="line"/>
      <point x="158" y="496" type="line"/>
      <point x="190" y="496" type="line"/>
      <point x="190" y="350" type="line"/>
      <point x="336" y="350" type="line"/>
    </contour>
  </outline>
</glyph>
<glyph name="comma" format="1">
  <advance width="85"/>
  <unicode hex="002C"/>
  <outline>
    <contour>
      <point x="13" y="-40" type="line"/>
      <point x="13" y="43" type="line"/>
      <point x="44" y="43" type="line"/>
      <point x="44" y="-40" type="line"/>
      <point x="44" y="-40" type="line"/>
    </contour>
  </outline>
</glyph>
<glyph name="zero" format="1">
  <advance width="320"/>
  <unicode hex="0030"/>
  <outline>
    <contour>
      <point x="50" y="0"/>
      <point x="9" y="66"/>
      <point x="9" y="181" type="curve" smooth="yes"/>
      <point x="9" y="494" type="line" smooth="yes"/>
      <point x="9" y="609"/>
      <point x="49" y="674"/>
      <point x="134" y="674" type="curve" smooth="yes"/>
      <point x="218" y="674"/>
      <point x="259" y="606"/>
      <point x="259" y="494" type="curve" smooth="yes"/>
      <point x="259" y="181" type="line" smooth="yes"/>
      <point x="259" y="69"/>
      <point x="217" y="0"/>
      <point x="134" y="0" type="curve" smooth="yes"/>
    </contour>
    <contour>
      <point x="71" y="643"/>
      <point x="40" y="593"/>
      <point x="40" y="494" type="curve" smooth="yes"/>
      <point x="40" y="181" type="line" smooth="yes"/>
      <point x="40" y="81"/>
      <point x="71" y="31"/>
      <point x="134" y="31" type="curve" smooth="yes"/>
      <point x="196" y="31"/>
      <point x="227" y="81"/>
      <point x="227" y="181" type="curve" smooth="yes"/>
      <point x="227" y="494" type="line" smooth="yes"/>
      <point x="227" y="593"/>
      <point x="196" y="643"/>
      <point x="134" y="643" type="curve" smooth="yes"/>
    </contour>
  </outline>
</glyph>
<glyph name="three" format="1">
  <advance width="303"/>
  <unicode hex="0033"/>
  <outline>
    <contour>
      <point x="231" y="286"/>
      <point x="260" y="245"/>
      <point x="260" y="174" type="curve" smooth="yes"/>
      <point x="260" y="67"/>
      <point x="211" y="0"/>
      <point x="135" y="0" type="curve" smooth="yes"/>
      <point x="52" y="0"/>
      <point x="10" y="65"/>
      <point x="10" y="178" type="curve" smooth="yes"/>
      <point x="10" y="194" type="line"/>
      <point x="42" y="194" type="line"/>
      <point x="42" y="178" type="line" smooth="yes"/>
      <point x="42" y="75"/>
      <point x="75" y="31"/>
      <point x="135" y="31" type="curve" smooth="yes"/>
      <point x="192" y="31"/>
      <point x="214" y="80"/>
      <point x="222" y="116" type="curve" smooth="yes"/>
      <point x="226" y="133"/>
      <point x="228" y="153"/>
      <point x="228" y="174" type="curve" smooth="yes"/>
      <point x="228" y="234"/>
      <point x="205" y="268"/>
      <point x="185" y="287" type="curve" smooth="yes"/>
      <point x="158" y="312"/>
      <point x="129" y="321"/>
      <point x="109" y="321" type="curve" smooth="yes"/>
      <point x="80" y="321" type="line"/>
      <point x="80" y="352" type="line"/>
      <point x="109" y="352" type="line" smooth="yes"/>
      <point x="133" y="352"/>
      <point x="163" y="364"/>
      <point x="187" y="388" type="curve" smooth="yes"/>
      <point x="210" y="412"/>
      <point x="228" y="448"/>
      <point x="228" y="499" type="curve" smooth="yes"/>
      <point x="228" y="542"/>
      <point x="220" y="577"/>
      <point x="203" y="604" type="curve" smooth="yes"/>
      <point x="187" y="630"/>
      <point x="164" y="643"/>
      <point x="135" y="643" type="curve" smooth="yes"/>
      <point x="73" y="643"/>
      <point x="42" y="594"/>
      <point x="42" y="495" type="curve" smooth="yes"/>
      <point x="42" y="479" type="line"/>
      <point x="10" y="479" type="line"/>
      <point x="10" y="495" type="line" smooth="yes"/>
      <point x="10" y="608"/>
      <point x="52" y="674"/>
      <point x="135" y="674" type="curve" smooth="yes"/>
      <point x="176" y="674"/>
      <point x="208" y="656"/>
      <point x="230" y="620" type="curve"/>
      <point x="250" y="590"/>
      <point x="260" y="550"/>
      <point x="260" y="499" type="curve" smooth="yes"/>
      <point x="260" y="430"/>
      <point x="231" y="387"/>
      <point x="207" y="364" type="curve" smooth="yes"/>
      <point x="195" y="352"/>
      <point x="182" y="343"/>
      <point x="169" y="336" type="curve"/>
      <point x="184" y="329"/>
      <point x="196" y="320"/>
      <point x="207" y="309" type="curve" smooth="yes"/>
    </contour>
  </outline>
</glyph>
<glyph name="four" format="1">
  <advance width="324"/>
  <unicode hex="0034"/>
  <outline>
    <contour>
      <point x="247" y="674" type="line"/>
      <point x="277" y="674" type="line"/>
      <point x="277" y="0" type="line"/>
      <point x="245" y="0" type="line"/>
      <point x="245" y="206" type="line"/>
      <point x="10" y="206" type="line"/>
      <point x="10" y="236" type="line"/>
    </contour>
    <contour>
      <point x="245" y="237" type="line"/>
      <point x="245" y="603" type="line"/>
      <point x="47" y="237" type="line"/>
    </contour>
  </outline>
</glyph>
<glyph name="five" format="1">
  <advance width="310"/>
  <unicode hex="0035"/>
  <outline>
    <contour>
      <point x="259" y="643" type="line"/>
      <point x="41" y="643" type="line"/>
      <point x="41" y="369" type="line"/>
      <point x="64" y="403"/>
      <point x="95" y="420"/>
      <point x="134" y="420" type="curve" smooth="yes"/>
      <point x="175" y="420"/>
      <point x="206" y="405"/>
      <point x="229" y="374" type="curve" smooth="yes"/>
      <point x="249" y="345"/>
      <point x="259" y="302"/>
      <point x="259" y="247" type="curve" smooth="yes"/>
      <point x="259" y="176" type="line" smooth="yes"/>
      <point x="259" y="129"/>
      <point x="248" y="86"/>
      <point x="229" y="55" type="curve" smooth="yes"/>
      <point x="206" y="18"/>
      <point x="175" y="0"/>
      <point x="134" y="0" type="curve" smooth="yes"/>
      <point x="51" y="0"/>
      <point x="9" y="65"/>
      <point x="9" y="176" type="curve" smooth="yes"/>
      <point x="9" y="187" type="line"/>
      <point x="41" y="187" type="line"/>
      <point x="41" y="176" type="line" smooth="yes"/>
      <point x="41" y="75"/>
      <point x="73" y="31"/>
      <point x="134" y="31" type="curve" smooth="yes"/>
      <point x="193" y="31"/>
      <point x="213" y="83"/>
      <point x="221" y="119" type="curve" smooth="yes"/>
      <point x="225" y="136"/>
      <point x="227" y="155"/>
      <point x="227" y="176" type="curve" smooth="yes"/>
      <point x="227" y="247" type="line" smooth="yes"/>
      <point x="227" y="346"/>
      <point x="197" y="388"/>
      <point x="134" y="388" type="curve" smooth="yes"/>
      <point x="75" y="388"/>
      <point x="41" y="332"/>
      <point x="41" y="247" type="curve" smooth="yes"/>
      <point x="41" y="243" type="line"/>
      <point x="41" y="241" type="line"/>
      <point x="9" y="241" type="line"/>
      <point x="9" y="243" type="line"/>
      <point x="9" y="247" type="line"/>
      <point x="9" y="674" type="line"/>
      <point x="41" y="674" type="line"/>
      <point x="259" y="674" type="line"/>
    </contour>
  </outline>
</glyph>
<glyph name="six" format="1">
  <advance width="312"/>
  <unicode hex="0036"/>
  <outline>
    <contour>
      <point x="55" y="0"/>
      <point x="9" y="58"/>
      <point x="9" y="158" type="curve" smooth="yes"/>
      <point x="9" y="253" type="line"/>
      <point x="9" y="254" type="line"/>
      <point x="9" y="453" type="line" smooth="yes"/>
      <point x="9" y="549"/>
      <point x="29" y="605"/>
      <point x="54" y="636" type="curve" smooth="yes"/>
      <point x="79" y="667"/>
      <point x="111" y="674"/>
      <point x="134" y="674" type="curve" smooth="yes"/>
      <point x="217" y="674"/>
      <point x="259" y="613"/>
      <point x="259" y="520" type="curve" smooth="yes"/>
      <point x="259" y="505" type="line"/>
      <point x="227" y="505" type="line"/>
      <point x="227" y="520" type="line" smooth="yes"/>
      <point x="227" y="599"/>
      <point x="194" y="643"/>
      <point x="134" y="643" type="curve" smooth="yes"/>
      <point x="94" y="643"/>
      <point x="70" y="614"/>
      <point x="57" y="575" type="curve" smooth="yes"/>
      <point x="44" y="536"/>
      <point x="41" y="489"/>
      <point x="41" y="453" type="curve" smooth="yes"/>
      <point x="41" y="378" type="line"/>
      <point x="64" y="412"/>
      <point x="95" y="429"/>
      <point x="134" y="429" type="curve" smooth="yes"/>
      <point x="219" y="429"/>
      <point x="259" y="366"/>
      <point x="259" y="253" type="curve" smooth="yes"/>
      <point x="259" y="180" type="line" smooth="yes"/>
      <point x="259" y="132"/>
      <point x="248" y="88"/>
      <point x="229" y="56" type="curve" smooth="yes"/>
      <point x="207" y="19"/>
      <point x="175" y="0"/>
      <point x="134" y="0" type="curve" smooth="yes"/>
    </contour>
    <contour>
      <point x="41" y="158" type="line" smooth="yes"/>
      <point x="41" y="134"/>
      <point x="44" y="103"/>
      <point x="57" y="77" type="curve" smooth="yes"/>
      <point x="70" y="51"/>
      <point x="94" y="31"/>
      <point x="134" y="31" type="curve" smooth="yes"/>
      <point x="193" y="31"/>
      <point x="213" y="84"/>
      <point x="221" y="121" type="curve" smooth="yes"/>
      <point x="225" y="139"/>
      <point x="227" y="159"/>
      <point x="227" y="180" type="curve" smooth="yes"/>
      <point x="227" y="253" type="line" smooth="yes"/>
      <point x="227" y="354"/>
      <point x="195" y="398"/>
      <point x="134" y="398" type="curve" smooth="yes"/>
      <point x="75" y="398"/>
      <point x="41" y="341"/>
      <point x="41" y="254" type="curve" smooth="yes"/>
    </contour>
  </outline>
</glyph>
<glyph name="seven" format="1">
  <advance width="376"/>
  <unicode hex="0037"/>
  <outline>
    <contour>
      <point x="305" y="643" type="line"/>
      <point x="6" y="643" type="line"/>
      <point x="6" y="674" type="line"/>
      <point x="339" y="674" type="line"/>
      <point x="339" y="644" type="line"/>
      <point x="70" y="0" type="line"/>
      <point x="36" y="0" type="line"/>
    </contour>
  </outline>
</glyph>
<glyph name="semicolon" format="1">
  <advance width="97"/>
  <unicode hex="003B"/>
  <outline>
    <contour>
      <point x="13" y="514" type="line"/>
      <point x="45" y="514" type="line"/>
      <point x="45" y="438" type="line"/>
      <point x="13" y="438" type="line"/>
    </contour>
    <contour>
      <point x="13" y="127" type="line"/>
      <point x="13" y="239" type="line"/>
      <point x="45" y="239" type="line"/>
      <point x="45" y="127" type="line"/>
    </contour>
  </outline>
</glyph>
<glyph name="F" format="1">
  <advance width="308"/>
  <unicode hex="0046"/>
  <outline>
    <contour>
      <point x="38" y="643" type="line"/>
      <point x="38" y="353" type="line"/>
      <point x="249" y="353" type="line"/>
      <point x="249" y="322" type="line"/>
      <point x="38" y="322" type="line"/>
      <point x="38" y="0" type="line"/>
      <point x="7" y="0" type="line"/>
      <point x="7" y="674" type="line"/>
      <point x="249" y="674" type="line"/>
      <point x="249" y="643" type="line"/>
    </contour>
  </outline>
</glyph>
<glyph name="J" format="1">
  <advance width="324"/>
  <unicode hex="004A"/>
  <outline>
    <contour>
      <point x="45" y="0"/>
      <point x="0" y="56"/>
      <point x="0" y="165" type="curve" smooth="yes"/>
      <point x="0" y="180" type="line"/>
      <point x="31" y="180" type="line"/>
      <point x="31" y="165" type="line" smooth="yes"/>
      <point x="31" y="105"/>
      <point x="46" y="72"/>
      <point x="66" y="53" type="curve" smooth="yes"/>
      <point x="86" y="34"/>
      <point x="111" y="31"/>
      <point x="134" y="31" type="curve" smooth="yes"/>
      <point x="201" y="31"/>
      <point x="236" y="73"/>
      <point x="236" y="165" type="curve" smooth="yes"/>
      <point x="236" y="674" type="line"/>
      <point x="267" y="674" type="line"/>
      <point x="267" y="165" type="line" smooth="yes"/>
      <point x="267" y="56"/>
      <point x="223" y="0"/>
      <point x="134" y="0" type="curve" smooth="yes"/>
    </contour>
  </outline>
</glyph>
<glyph name="P" format="1">
  <advance width="340"/>
  <unicode hex="0050"/>
  <outline>
    <contour>
      <point x="42" y="0" type="line"/>
      <point x="11" y="0" type="line"/>
      <point x="11" y="674" type="line"/>
      <point x="132" y="674" type="line" smooth="yes"/>
      <point x="240" y="674"/>
      <point x="289" y="615"/>
      <point x="289" y="498" type="curve" smooth="yes"/>
      <point x="289" y="381"/>
      <point x="240" y="322"/>
      <point x="132" y="322" type="curve" smooth="yes"/>
      <point x="42" y="322" type="line"/>
    </contour>
    <contour>
      <point x="42" y="353" type="line"/>
      <point x="132" y="353" type="line" smooth="yes"/>
      <point x="220" y="353"/>
      <point x="257" y="397"/>
      <point x="257" y="498" type="curve" smooth="yes"/>
      <point x="257" y="602"/>
      <point x="221" y="643"/>
      <point x="132" y="643" type="curve" smooth="yes"/>
      <point x="42" y="643" type="line"/>
    </contour>
  </outline>
</glyph>
<glyph name="Q" format="1">
  <advance width="348"/>
  <unicode hex="0051"/>
  <outline>
    <contour>
      <point x="280" y="-31" type="line"/>
      <point x="234" y="25" type="line"/>
      <point x="211" y="8"/>
      <point x="183" y="0"/>
      <point x="150" y="0" type="curve" smooth="yes"/>
      <point x="54" y="0"/>
      <point x="6" y="66"/>
      <point x="6" y="182" type="curve" smooth="yes"/>
      <point x="6" y="499" type="line" smooth="yes"/>
      <point x="6" y="614"/>
      <point x="54" y="674"/>
      <point x="150" y="674" type="curve" smooth="yes"/>
      <point x="245" y="674"/>
      <point x="293" y="614"/>
      <point x="293" y="499" type="curve" smooth="yes"/>
      <point x="293" y="182" type="line" smooth="yes"/>
      <point x="293" y="125"/>
      <point x="281" y="80"/>
      <point x="258" y="49" type="curve"/>
      <point x="256" y="47" type="line"/>
      <point x="321" y="-31" type="line"/>
    </contour>
    <contour>
      <point x="175" y="31"/>
      <point x="197" y="37"/>
      <point x="214" y="49" type="curve"/>
      <point x="169" y="104" type="line"/>
      <point x="209" y="104" type="line"/>
      <point x="236" y="72" type="line"/>
      <point x="253" y="97"/>
      <point x="261" y="133"/>
      <point x="261" y="182" type="curve" smooth="yes"/>
      <point x="261" y="499" type="line" smooth="yes"/>
      <point x="261" y="600"/>
      <point x="225" y="643"/>
      <point x="150" y="643" type="curve" smooth="yes"/>
      <point x="75" y="643"/>
      <point x="38" y="598"/>
      <point x="38" y="499" type="curve" smooth="yes"/>
      <point x="38" y="182" type="line" smooth="yes"/>
      <point x="38" y="81"/>
      <point x="75" y="31"/>
      <point x="150" y="31" type="curve" smooth="yes"/>
    </contour>
  </outline>
</glyph>
<glyph name="T" format="1">
  <advance width="401"/>
  <unicode hex="0054"/>
  <outline>
    <contour>
      <point x="359" y="643" type="line"/>
      <point x="197" y="643" type="line"/>
      <point x="197" y="1" type="line"/>
      <point x="166" y="1" type="line"/>
      <point x="166" y="643" type="line"/>
      <point x="5" y="643" type="line"/>
      <point x="5" y="675" type="line"/>
      <point x="359" y="675" type="line"/>
    </contour>
  </outline>
</glyph>
<glyph name="U" format="1">
  <advance width="348"/>
  <unicode hex="0055"/>
  <outline>
    <contour>
      <point x="110" y="1"/>
      <point x="78" y="8"/>
      <point x="52" y="32" type="curve" smooth="yes"/>
      <point x="26" y="56"/>
      <point x="7" y="98"/>
      <point x="7" y="166" type="curve" smooth="yes"/>
      <point x="7" y="675" type="line"/>
      <point x="38" y="675" type="line"/>
      <point x="38" y="166" type="line" smooth="yes"/>
      <point x="38" y="106"/>
      <point x="53" y="73"/>
      <point x="73" y="54" type="curve" smooth="yes"/>
      <point x="93" y="35"/>
      <point x="118" y="32"/>
      <point x="141" y="32" type="curve" smooth="yes"/>
      <point x="162" y="32"/>
      <point x="188" y="35"/>
      <point x="208" y="54" type="curve" smooth="yes"/>
      <point x="228" y="73"/>
      <point x="243" y="106"/>
      <point x="243" y="166" type="curve" smooth="yes"/>
      <point x="243" y="675" type="line"/>
      <point x="274" y="675" type="line"/>
      <point x="274" y="166" type="line" smooth="yes"/>
      <point x="274" y="98"/>
      <point x="255" y="56"/>
      <point x="230" y="32" type="curve" smooth="yes"/>
      <point x="205" y="8"/>
      <point x="170" y="1"/>
      <point x="141" y="1" type="curve" smooth="yes"/>
    </contour>
  </outline>
</glyph>
<glyph name="Y" format="1">
  <advance width="417"/>
  <unicode hex="0059"/>
  <outline>
    <contour>
      <point x="396" y="674" type="line"/>
      <point x="209" y="333" type="line"/>
      <point x="209" y="0" type="line"/>
      <point x="178" y="0" type="line"/>
      <point x="178" y="333" type="line"/>
      <point x="-10" y="674" type="line"/>
      <point x="26" y="674" type="line"/>
      <point x="193" y="370" type="line"/>
      <point x="360" y="674" type="line"/>
    </contour>
  </outline>
</glyph>
<glyph name="Z" format="1">
  <advance width="409"/>
  <unicode hex="005A"/>
  <outline>
    <contour>
      <point x="333" y="31" type="line"/>
      <point x="333" y="0" type="line"/>
      <point x="5" y="0" type="line"/>
      <point x="5" y="31" type="line"/>
      <point x="292" y="643" type="line"/>
      <point x="0" y="643" type="line"/>
      <point x="0" y="674" type="line"/>
      <point x="328" y="674" type="line"/>
      <point x="328" y="645" type="line"/>
      <point x="40" y="31" type="line"/>
    </contour>
  </outline>
</glyph>
<glyph name="backslash" format="1">
  <advance width="380"/>
  <unicode hex="005C"/>
  <outline>
    <contour>
      <point x="326" y="0" type="line"/>
      <point x="292" y="0" type="line"/>
      <point x="22" y="674" type="line"/>
      <point x="56" y="674" type="line"/>
    </contour>
  </outline>
</glyph>
<glyph name="grave" format="1">
  <advance width="81"/>
  <unicode hex="0060"/>
  <outline>
    <contour>
      <point x="10" y="674" type="line"/>
      <point x="41" y="674" type="line"/>
      <point x="41" y="586" type="line"/>
      <point x="10" y="586" type="line"/>
    </contour>
  </outline>
</glyph>
<glyph name="b" format="1">
  <advance width="336"/>
  <unicode hex="0062"/>
  <outline>
    <contour>
      <point x="219" y="330"/>
      <point x="231" y="321"/>
      <point x="242" y="308" type="curve" smooth="yes"/>
      <point x="265" y="279"/>
      <point x="277" y="235"/>
      <point x="277" y="176" type="curve" smooth="yes"/>
      <point x="277" y="59"/>
      <point x="231" y="0"/>
      <point x="128" y="0" type="curve" smooth="yes"/>
      <point x="49" y="0" type="line"/>
      <point x="17" y="0" type="line"/>
      <point x="17" y="31" type="line"/>
      <point x="17" y="674" type="line"/>
      <point x="128" y="674" type="line" smooth="yes"/>
      <point x="231" y="674"/>
      <point x="277" y="615"/>
      <point x="277" y="498" type="curve" smooth="yes"/>
      <point x="277" y="440"/>
      <point x="265" y="396"/>
      <point x="242" y="367" type="curve" smooth="yes"/>
      <point x="231" y="354"/>
      <point x="220" y="345"/>
      <point x="205" y="337" type="curve"/>
    </contour>
    <contour>
      <point x="49" y="353" type="line"/>
      <point x="128" y="353" type="line" smooth="yes"/>
      <point x="211" y="353"/>
      <point x="245" y="395"/>
      <point x="245" y="498" type="curve" smooth="yes"/>
      <point x="245" y="602"/>
      <point x="212" y="643"/>
      <point x="128" y="643" type="curve" smooth="yes"/>
      <point x="49" y="643" type="line"/>
    </contour>
    <contour>
      <point x="128" y="31" type="line" smooth="yes"/>
      <point x="212" y="31"/>
      <point x="245" y="72"/>
      <point x="245" y="176" type="curve" smooth="yes"/>
      <point x="245" y="280"/>
      <point x="211" y="322"/>
      <point x="128" y="322" type="curve" smooth="yes"/>
      <point x="49" y="322" type="line"/>
      <point x="49" y="31" type="line"/>
    </contour>
  </outline>
</glyph>
<glyph name="f" format="1">
  <advance width="308"/>
  <unicode hex="0066"/>
  <outline>
    <contour>
      <point x="38" y="643" type="line"/>
      <point x="38" y="353" type="line"/>
      <point x="249" y="353" type="line"/>
      <point x="249" y="322" type="line"/>
      <point x="38" y="322" type="line"/>
      <point x="38" y="0" type="line"/>
      <point x="7" y="0" type="line"/>
      <point x="7" y="674" type="line"/>
      <point x="249" y="674" type="line"/>
      <point x="249" y="643" type="line"/>
    </contour>
  </outline>
</glyph>
<glyph name="g" format="1">
  <advance width="352"/>
  <unicode hex="0067"/>
  <outline>
    <contour>
      <point x="58" y="0"/>
      <point x="10" y="63"/>
      <point x="10" y="178" type="curve" smooth="yes"/>
      <point x="10" y="497" type="line" smooth="yes"/>
      <point x="10" y="613"/>
      <point x="58" y="674"/>
      <point x="154" y="674" type="curve" smooth="yes"/>
      <point x="250" y="674"/>
      <point x="298" y="613"/>
      <point x="298" y="497" type="curve" smooth="yes"/>
      <point x="298" y="481" type="line"/>
      <point x="266" y="481" type="line"/>
      <point x="266" y="497" type="line" smooth="yes"/>
      <point x="266" y="562"/>
      <point x="250" y="599"/>
      <point x="228" y="619" type="curve" smooth="yes"/>
      <point x="206" y="639"/>
      <point x="178" y="643"/>
      <point x="154" y="643" type="curve" smooth="yes"/>
      <point x="130" y="643"/>
      <point x="102" y="639"/>
      <point x="80" y="619" type="curve" smooth="yes"/>
      <point x="58" y="599"/>
      <point x="41" y="562"/>
      <point x="41" y="497" type="curve" smooth="yes"/>
      <point x="41" y="178" type="line" smooth="yes"/>
      <point x="41" y="78"/>
      <point x="78" y="31"/>
      <point x="154" y="31" type="curve" smooth="yes"/>
      <point x="229" y="31"/>
      <point x="266" y="78"/>
      <point x="266" y="178" type="curve" smooth="yes"/>
      <point x="266" y="266" type="line"/>
      <point x="120" y="266" type="line"/>
      <point x="120" y="298" type="line"/>
      <point x="298" y="298" type="line"/>
      <point x="298" y="178" type="line" smooth="yes"/>
      <point x="298" y="62"/>
      <point x="250" y="0"/>
      <point x="154" y="0" type="curve" smooth="yes"/>
    </contour>
  </outline>
</glyph>
<glyph name="n" format="1">
  <advance width="360"/>
  <unicode hex="006E"/>
  <outline>
    <contour>
      <point x="41" y="0" type="line"/>
      <point x="9" y="0" type="line"/>
      <point x="9" y="674" type="line"/>
      <point x="36" y="674" type="line"/>
      <point x="268" y="97" type="line"/>
      <point x="268" y="674" type="line"/>
      <point x="300" y="674" type="line"/>
      <point x="300" y="0" type="line"/>
      <point x="274" y="0" type="line"/>
      <point x="41" y="577" type="line"/>
    </contour>
  </outline>
</glyph>
<glyph name="s" format="1">
  <advance width="348"/>
  <unicode hex="0073"/>
  <outline>
    <contour>
      <point x="58" y="1"/>
      <point x="10" y="60"/>
      <point x="10" y="179" type="curve" smooth="yes"/>
      <point x="10" y="194" type="line"/>
      <point x="41" y="194" type="line"/>
      <point x="41" y="179" type="line" smooth="yes"/>
      <point x="41" y="112"/>
      <point x="58" y="76"/>
      <point x="80" y="56" type="curve" smooth="yes"/>
      <point x="102" y="36"/>
      <point x="130" y="32"/>
      <point x="154" y="32" type="curve" smooth="yes"/>
      <point x="226" y="32"/>
      <point x="267" y="85"/>
      <point x="267" y="174" type="curve" smooth="yes"/>
      <point x="267" y="222"/>
      <point x="248" y="254"/>
      <point x="225" y="275" type="curve" smooth="yes"/>
      <point x="201" y="296"/>
      <point x="173" y="307"/>
      <point x="157" y="314" type="curve" smooth="yes"/>
      <point x="140" y="321" type="line" smooth="yes"/>
      <point x="120" y="329"/>
      <point x="88" y="343"/>
      <point x="61" y="371" type="curve"/>
      <point x="33" y="398"/>
      <point x="10" y="437"/>
      <point x="10" y="496" type="curve" smooth="yes"/>
      <point x="10" y="597"/>
      <point x="62" y="675"/>
      <point x="154" y="675" type="curve" smooth="yes"/>
      <point x="249" y="675"/>
      <point x="299" y="612"/>
      <point x="299" y="496" type="curve" smooth="yes"/>
      <point x="299" y="480" type="line"/>
      <point x="267" y="480" type="line"/>
      <point x="267" y="496" type="line" smooth="yes"/>
      <point x="267" y="597"/>
      <point x="230" y="643"/>
      <point x="154" y="643" type="curve" smooth="yes"/>
      <point x="82" y="643"/>
      <point x="41" y="583"/>
      <point x="41" y="496" type="curve" smooth="yes"/>
      <point x="41" y="448"/>
      <point x="59" y="416"/>
      <point x="83" y="393" type="curve" smooth="yes"/>
      <point x="106" y="370"/>
      <point x="133" y="358"/>
      <point x="153" y="350" type="curve" smooth="yes"/>
      <point x="169" y="343" type="line" smooth="yes"/>
      <point x="186" y="336"/>
      <point x="219" y="324"/>
      <point x="247" y="298" type="curve" smooth="yes"/>
      <point x="275" y="272"/>
      <point x="299" y="233"/>
      <point x="299" y="174" type="curve" smooth="yes"/>
      <point x="299" y="74"/>
      <point x="247" y="1"/>
      <point x="154" y="1" type="curve" smooth="yes"/>
    </contour>
  </outline>
</glyph>
<glyph name="v" format="1">
  <advance width="401"/>
  <unicode hex="0076"/>
  <outline>
    <contour>
      <point x="362" y="675" type="line"/>
      <point x="193" y="1" type="line"/>
      <point x="169" y="1" type="line"/>
      <point x="0" y="675" type="line"/>
      <point x="32" y="675" type="line"/>
      <point x="181" y="81" type="line"/>
      <point x="329" y="675" type="line"/>
    </contour>
  </outline>
</glyph>
